<?xml version="1.0" standalone="no"?>
<!DOCTYPE svg PUBLIC "-//W3C//DTD SVG 20010904//EN"
 "http://www.w3.org/TR/2001/REC-SVG-20010904/DTD/svg10.dtd">
<svg version="1.0" xmlns="http://www.w3.org/2000/svg"
 width="700.000000pt" height="700.000000pt" viewBox="0 0 700.000000 700.000000"
 preserveAspectRatio="xMidYMid meet">
<metadata>
Created by potrace 1.14, written by Peter Selinger 2001-2017
</metadata>
<g transform="translate(0.000000,700.000000) scale(0.100000,-0.100000)"
fill="#000000" stroke="none">
<path d="M3205 6993 c-27 -2 -126 -15 -220 -28 -611 -88 -1188 -339 -1685
-733 -135 -107 -449 -426 -554 -562 -434 -563 -673 -1169 -737 -1870 -15 -161
-6 -606 15 -755 92 -651 321 -1194 722 -1715 114 -149 435 -470 584 -584 525
-404 1049 -624 1725 -723 173 -25 716 -25 894 0 661 95 1199 321 1721 723 133
102 465 429 560 552 423 544 646 1069 747 1757 25 173 25 716 0 894 -96 668
-339 1241 -745 1751 -100 125 -400 426 -528 528 -547 437 -1188 696 -1889 762
-101 9 -493 11 -610 3z m932 -1780 c436 -302 806 -749 997 -1205 123 -293 176
-548 176 -839 0 -177 -8 -251 -41 -399 l-21 -96 60 -84 c160 -223 256 -469
280 -720 15 -143 -4 -300 -36 -300 -4 0 -19 21 -34 48 -76 133 -202 241 -333
284 -58 19 -91 23 -190 22 -159 0 -231 -21 -465 -134 -102 -49 -228 -102 -280
-119 -412 -133 -877 -117 -1353 46 -568 194 -1072 579 -1432 1096 -25 37 -45
67 -43 67 2 0 55 -34 118 -76 221 -146 555 -294 810 -359 479 -121 947 -84
1328 107 57 28 105 54 107 58 2 4 -48 48 -111 99 -364 295 -758 686 -1152
1146 -196 228 -570 694 -648 805 l-59 85 145 -126 c439 -381 1287 -1014 1520
-1134 35 -18 35 -18 -15 38 -435 486 -769 903 -1071 1337 l-59 85 195 -185
c354 -335 658 -597 1017 -877 358 -278 812 -590 826 -566 15 26 60 184 78 269
26 127 36 401 20 540 -41 356 -185 745 -394 1061 -81 124 -81 124 60 26z"/>
</g>
</svg>
