<svg width="160" height="160" viewBox="0 0 160 160" fill="none" xmlns="http://www.w3.org/2000/svg">
<rect width="160" height="160" rx="80" fill="#F9004D"/>
<mask id="mask0_203_946" style="mask-type:alpha" maskUnits="userSpaceOnUse" x="0" y="0" width="160" height="160">
<rect width="160" height="160" rx="80" fill="white"/>
</mask>
<g mask="url(#mask0_203_946)">
<path d="M119.996 98.8322C119.993 98.8284 119.99 98.8256 119.987 98.8219C120.128 98.3432 120.273 97.8674 120.396 97.3767C125.674 76.3495 112.793 51.4895 90.9957 38.4C100.548 51.349 104.771 67.0332 101.019 80.7494C100.684 81.9728 100.282 83.1469 99.8371 84.2881C99.3545 83.971 98.7464 83.6111 97.9298 83.1608C97.9298 83.1608 76.2474 69.7734 52.7472 46.0942C52.1306 45.4726 65.2785 64.8864 80.1998 80.6509C73.1698 76.7055 53.5781 62.4509 41.1753 51.0991C42.6992 53.6404 44.5116 56.0874 46.5038 58.4432C56.8613 71.5785 70.3686 87.7853 86.5511 100.23C75.1811 107.188 59.1152 107.729 43.119 100.238C39.1625 98.3834 35.4431 96.1462 32 93.6044C38.7711 104.435 49.1997 113.779 61.8921 119.235C77.0285 125.739 92.0804 125.298 103.291 119.341L103.282 119.354C103.333 119.322 103.399 119.287 103.452 119.254C103.912 119.006 104.369 118.754 104.816 118.488C110.202 115.692 120.841 112.856 126.551 123.967C127.95 126.686 130.922 112.276 119.996 98.8322Z" fill="white"/>
</g>
</svg>
